<mxfile host="app.diagrams.net" modified="2022-07-12T10:55:53.630Z" agent="5.0 (X11; Linux x86_64) AppleWebKit/537.36 (KHTML, like Gecko) Chrome/100.0.4896.88 Safari/537.36" etag="5Hbhv20-QAVMjH3YiXSW" version="20.0.4" type="github" pages="5">
  <diagram name="Page-1" id="f1b7ffb7-ca1e-a977-7cf5-a751b3c06c05">
    <mxGraphModel dx="1350" dy="832" grid="1" gridSize="10" guides="1" tooltips="1" connect="1" arrows="1" fold="1" page="1" pageScale="1" pageWidth="826" pageHeight="1169" background="#ffffff" math="0" shadow="0">
      <root>
        <mxCell id="0" />
        <mxCell id="1" parent="0" />
        <mxCell id="2" value="Magic project" style="text;spacingTop=-5;fontSize=18;fontStyle=0" parent="1" vertex="1">
          <mxGeometry x="70" y="30" width="230" height="20" as="geometry" />
        </mxCell>
        <mxCell id="3" value="" style="line;strokeWidth=1" parent="1" vertex="1">
          <mxGeometry x="20" y="60" width="780" height="10" as="geometry" />
        </mxCell>
        <mxCell id="4" value="" style="line;strokeWidth=1" parent="1" vertex="1">
          <mxGeometry x="20" y="90" width="780" height="10" as="geometry" />
        </mxCell>
        <mxCell id="5" value="Home" style="text;spacingTop=-5;" parent="1" vertex="1">
          <mxGeometry x="140" y="70.00000000000009" width="30" height="20" as="geometry" />
        </mxCell>
        <mxCell id="6" value="Shop" style="text;spacingTop=-5;" parent="1" vertex="1">
          <mxGeometry x="229.99999999999994" y="70.00000000000016" width="30" height="20" as="geometry" />
        </mxCell>
        <mxCell id="7" value="Link to profile" style="text;spacingTop=-5;" parent="1" vertex="1">
          <mxGeometry x="699.9999999999999" y="70" width="30" height="20" as="geometry" />
        </mxCell>
        <mxCell id="20" value="" style="verticalLabelPosition=bottom;verticalAlign=top;strokeWidth=1;shape=mxgraph.mockup.graphics.iconGrid;strokeColor=#CCCCCC;gridSize=1,1;" parent="1" vertex="1">
          <mxGeometry x="20" y="15" width="40" height="40" as="geometry" />
        </mxCell>
        <mxCell id="21" value="Blog &#xa;Logo" style="text;spacingTop=-5;align=center" parent="1" vertex="1">
          <mxGeometry x="20" y="20" width="40" height="40" as="geometry" />
        </mxCell>
        <mxCell id="22" value="Stories" style="text;spacingTop=-5;" parent="1" vertex="1">
          <mxGeometry x="320" y="70.00000000000026" width="30" height="20" as="geometry" />
        </mxCell>
        <mxCell id="23" value="Our places" style="text;spacingTop=-5;" parent="1" vertex="1">
          <mxGeometry x="410" y="70.00000000000003" width="30" height="20" as="geometry" />
        </mxCell>
        <mxCell id="24" value="Our events" style="text;spacingTop=-5;" parent="1" vertex="1">
          <mxGeometry x="530" y="70.00000000000013" width="30" height="20" as="geometry" />
        </mxCell>
        <mxCell id="_QxFXCe38HqPFqeo85Vo-69" value="" style="rounded=0;whiteSpace=wrap;html=1;" vertex="1" parent="1">
          <mxGeometry x="30" y="710" width="770" height="30" as="geometry" />
        </mxCell>
        <mxCell id="_QxFXCe38HqPFqeo85Vo-70" value="Contacts" style="text;spacingTop=-5;" vertex="1" parent="1">
          <mxGeometry x="170" y="715.0000000000001" width="30" height="20" as="geometry" />
        </mxCell>
        <mxCell id="_QxFXCe38HqPFqeo85Vo-71" value="Team" style="text;spacingTop=-5;" vertex="1" parent="1">
          <mxGeometry x="250" y="715.0000000000001" width="30" height="20" as="geometry" />
        </mxCell>
        <mxCell id="_QxFXCe38HqPFqeo85Vo-73" value="" style="rounded=0;whiteSpace=wrap;html=1;" vertex="1" parent="1">
          <mxGeometry x="365" y="180" width="120" height="60" as="geometry" />
        </mxCell>
        <mxCell id="_QxFXCe38HqPFqeo85Vo-74" value="" style="rounded=0;whiteSpace=wrap;html=1;" vertex="1" parent="1">
          <mxGeometry x="590" y="180" width="120" height="60" as="geometry" />
        </mxCell>
        <mxCell id="_QxFXCe38HqPFqeo85Vo-75" value="" style="rounded=0;whiteSpace=wrap;html=1;" vertex="1" parent="1">
          <mxGeometry x="355" y="370" width="135" height="70" as="geometry" />
        </mxCell>
        <mxCell id="_QxFXCe38HqPFqeo85Vo-76" value="" style="rounded=0;whiteSpace=wrap;html=1;" vertex="1" parent="1">
          <mxGeometry x="600" y="370" width="130" height="70" as="geometry" />
        </mxCell>
        <mxCell id="_QxFXCe38HqPFqeo85Vo-77" value="" style="rounded=0;whiteSpace=wrap;html=1;" vertex="1" parent="1">
          <mxGeometry x="365" y="530" width="120" height="60" as="geometry" />
        </mxCell>
        <mxCell id="_QxFXCe38HqPFqeo85Vo-78" value="" style="rounded=0;whiteSpace=wrap;html=1;" vertex="1" parent="1">
          <mxGeometry x="600" y="530" width="120" height="60" as="geometry" />
        </mxCell>
        <mxCell id="_QxFXCe38HqPFqeo85Vo-79" value="" style="rounded=0;whiteSpace=wrap;html=1;" vertex="1" parent="1">
          <mxGeometry x="40" y="170" width="240" height="430" as="geometry" />
        </mxCell>
      </root>
    </mxGraphModel>
  </diagram>
  <diagram name="Copy of Page-1" id="UI9cgM85aQZr_fMnvbXI">
    <mxGraphModel dx="1350" dy="832" grid="1" gridSize="10" guides="1" tooltips="1" connect="1" arrows="1" fold="1" page="1" pageScale="1" pageWidth="826" pageHeight="1169" background="#ffffff" math="0" shadow="0">
      <root>
        <mxCell id="3rT09AqdeSi3Q1pruoXS-0" />
        <mxCell id="3rT09AqdeSi3Q1pruoXS-1" parent="3rT09AqdeSi3Q1pruoXS-0" />
        <mxCell id="3rT09AqdeSi3Q1pruoXS-2" value="Magic project" style="text;spacingTop=-5;fontSize=18;fontStyle=0" vertex="1" parent="3rT09AqdeSi3Q1pruoXS-1">
          <mxGeometry x="70" y="30" width="230" height="20" as="geometry" />
        </mxCell>
        <mxCell id="3rT09AqdeSi3Q1pruoXS-3" value="" style="line;strokeWidth=1" vertex="1" parent="3rT09AqdeSi3Q1pruoXS-1">
          <mxGeometry x="20" y="60" width="780" height="10" as="geometry" />
        </mxCell>
        <mxCell id="3rT09AqdeSi3Q1pruoXS-4" value="" style="line;strokeWidth=1" vertex="1" parent="3rT09AqdeSi3Q1pruoXS-1">
          <mxGeometry x="20" y="90" width="780" height="10" as="geometry" />
        </mxCell>
        <mxCell id="3rT09AqdeSi3Q1pruoXS-5" value="Home" style="text;spacingTop=-5;" vertex="1" parent="3rT09AqdeSi3Q1pruoXS-1">
          <mxGeometry x="140" y="70.00000000000009" width="30" height="20" as="geometry" />
        </mxCell>
        <mxCell id="3rT09AqdeSi3Q1pruoXS-6" value="Shop" style="text;spacingTop=-5;" vertex="1" parent="3rT09AqdeSi3Q1pruoXS-1">
          <mxGeometry x="229.99999999999994" y="70.00000000000016" width="30" height="20" as="geometry" />
        </mxCell>
        <mxCell id="3rT09AqdeSi3Q1pruoXS-7" value="Link to profile" style="text;spacingTop=-5;" vertex="1" parent="3rT09AqdeSi3Q1pruoXS-1">
          <mxGeometry x="699.9999999999999" y="70" width="30" height="20" as="geometry" />
        </mxCell>
        <mxCell id="3rT09AqdeSi3Q1pruoXS-8" value="" style="verticalLabelPosition=bottom;verticalAlign=top;strokeWidth=1;shape=mxgraph.mockup.graphics.iconGrid;strokeColor=#CCCCCC;gridSize=1,1;" vertex="1" parent="3rT09AqdeSi3Q1pruoXS-1">
          <mxGeometry x="20" y="15" width="40" height="40" as="geometry" />
        </mxCell>
        <mxCell id="3rT09AqdeSi3Q1pruoXS-9" value="Blog &#xa;Logo" style="text;spacingTop=-5;align=center" vertex="1" parent="3rT09AqdeSi3Q1pruoXS-1">
          <mxGeometry x="20" y="20" width="40" height="40" as="geometry" />
        </mxCell>
        <mxCell id="3rT09AqdeSi3Q1pruoXS-10" value="Stories" style="text;spacingTop=-5;" vertex="1" parent="3rT09AqdeSi3Q1pruoXS-1">
          <mxGeometry x="320" y="70.00000000000026" width="30" height="20" as="geometry" />
        </mxCell>
        <mxCell id="3rT09AqdeSi3Q1pruoXS-11" value="Our places" style="text;spacingTop=-5;" vertex="1" parent="3rT09AqdeSi3Q1pruoXS-1">
          <mxGeometry x="410" y="70.00000000000003" width="30" height="20" as="geometry" />
        </mxCell>
        <mxCell id="3rT09AqdeSi3Q1pruoXS-12" value="Our events" style="text;spacingTop=-5;" vertex="1" parent="3rT09AqdeSi3Q1pruoXS-1">
          <mxGeometry x="530" y="70.00000000000013" width="30" height="20" as="geometry" />
        </mxCell>
        <mxCell id="3rT09AqdeSi3Q1pruoXS-13" value="" style="rounded=0;whiteSpace=wrap;html=1;" vertex="1" parent="3rT09AqdeSi3Q1pruoXS-1">
          <mxGeometry x="30" y="710" width="770" height="30" as="geometry" />
        </mxCell>
        <mxCell id="3rT09AqdeSi3Q1pruoXS-14" value="Contacts" style="text;spacingTop=-5;" vertex="1" parent="3rT09AqdeSi3Q1pruoXS-1">
          <mxGeometry x="170" y="715.0000000000001" width="30" height="20" as="geometry" />
        </mxCell>
        <mxCell id="3rT09AqdeSi3Q1pruoXS-15" value="Team" style="text;spacingTop=-5;" vertex="1" parent="3rT09AqdeSi3Q1pruoXS-1">
          <mxGeometry x="250" y="715.0000000000001" width="30" height="20" as="geometry" />
        </mxCell>
        <mxCell id="Rn1_8cYL6Tu2V8lIvkce-0" value="" style="rounded=0;whiteSpace=wrap;html=1;" vertex="1" parent="3rT09AqdeSi3Q1pruoXS-1">
          <mxGeometry x="80" y="160" width="170" height="150" as="geometry" />
        </mxCell>
        <mxCell id="Rn1_8cYL6Tu2V8lIvkce-1" value="" style="rounded=0;whiteSpace=wrap;html=1;" vertex="1" parent="3rT09AqdeSi3Q1pruoXS-1">
          <mxGeometry x="520" y="160" width="170" height="150" as="geometry" />
        </mxCell>
        <mxCell id="Rn1_8cYL6Tu2V8lIvkce-2" value="" style="rounded=0;whiteSpace=wrap;html=1;" vertex="1" parent="3rT09AqdeSi3Q1pruoXS-1">
          <mxGeometry x="300" y="160" width="170" height="150" as="geometry" />
        </mxCell>
        <mxCell id="Rn1_8cYL6Tu2V8lIvkce-3" value="" style="rounded=0;whiteSpace=wrap;html=1;" vertex="1" parent="3rT09AqdeSi3Q1pruoXS-1">
          <mxGeometry x="80" y="520" width="170" height="150" as="geometry" />
        </mxCell>
        <mxCell id="Rn1_8cYL6Tu2V8lIvkce-4" value="" style="rounded=0;whiteSpace=wrap;html=1;" vertex="1" parent="3rT09AqdeSi3Q1pruoXS-1">
          <mxGeometry x="80" y="350" width="170" height="150" as="geometry" />
        </mxCell>
        <mxCell id="Rn1_8cYL6Tu2V8lIvkce-5" value="" style="rounded=0;whiteSpace=wrap;html=1;" vertex="1" parent="3rT09AqdeSi3Q1pruoXS-1">
          <mxGeometry x="300" y="350" width="170" height="150" as="geometry" />
        </mxCell>
        <mxCell id="Rn1_8cYL6Tu2V8lIvkce-6" value="" style="rounded=0;whiteSpace=wrap;html=1;" vertex="1" parent="3rT09AqdeSi3Q1pruoXS-1">
          <mxGeometry x="520" y="520" width="170" height="150" as="geometry" />
        </mxCell>
        <mxCell id="Rn1_8cYL6Tu2V8lIvkce-7" value="" style="rounded=0;whiteSpace=wrap;html=1;" vertex="1" parent="3rT09AqdeSi3Q1pruoXS-1">
          <mxGeometry x="520" y="350" width="170" height="150" as="geometry" />
        </mxCell>
        <mxCell id="Rn1_8cYL6Tu2V8lIvkce-8" value="" style="rounded=0;whiteSpace=wrap;html=1;" vertex="1" parent="3rT09AqdeSi3Q1pruoXS-1">
          <mxGeometry x="300" y="520" width="170" height="150" as="geometry" />
        </mxCell>
      </root>
    </mxGraphModel>
  </diagram>
  <diagram name="Copy of Copy of Page-1" id="P_VWnZrdH0WSnIzC37P3">
    <mxGraphModel dx="1350" dy="832" grid="1" gridSize="10" guides="1" tooltips="1" connect="1" arrows="1" fold="1" page="1" pageScale="1" pageWidth="826" pageHeight="1169" background="#ffffff" math="0" shadow="0">
      <root>
        <mxCell id="hX0IhELRTQma99z2lVTA-0" />
        <mxCell id="hX0IhELRTQma99z2lVTA-1" parent="hX0IhELRTQma99z2lVTA-0" />
        <mxCell id="hX0IhELRTQma99z2lVTA-2" value="Magic project" style="text;spacingTop=-5;fontSize=18;fontStyle=0" vertex="1" parent="hX0IhELRTQma99z2lVTA-1">
          <mxGeometry x="70" y="30" width="230" height="20" as="geometry" />
        </mxCell>
        <mxCell id="hX0IhELRTQma99z2lVTA-3" value="" style="line;strokeWidth=1" vertex="1" parent="hX0IhELRTQma99z2lVTA-1">
          <mxGeometry x="20" y="60" width="780" height="10" as="geometry" />
        </mxCell>
        <mxCell id="hX0IhELRTQma99z2lVTA-4" value="" style="line;strokeWidth=1" vertex="1" parent="hX0IhELRTQma99z2lVTA-1">
          <mxGeometry x="20" y="90" width="780" height="10" as="geometry" />
        </mxCell>
        <mxCell id="hX0IhELRTQma99z2lVTA-5" value="Home" style="text;spacingTop=-5;" vertex="1" parent="hX0IhELRTQma99z2lVTA-1">
          <mxGeometry x="140" y="70.00000000000009" width="30" height="20" as="geometry" />
        </mxCell>
        <mxCell id="hX0IhELRTQma99z2lVTA-6" value="Shop" style="text;spacingTop=-5;" vertex="1" parent="hX0IhELRTQma99z2lVTA-1">
          <mxGeometry x="229.99999999999994" y="70.00000000000016" width="30" height="20" as="geometry" />
        </mxCell>
        <mxCell id="hX0IhELRTQma99z2lVTA-7" value="Link to profile" style="text;spacingTop=-5;" vertex="1" parent="hX0IhELRTQma99z2lVTA-1">
          <mxGeometry x="699.9999999999999" y="70" width="30" height="20" as="geometry" />
        </mxCell>
        <mxCell id="hX0IhELRTQma99z2lVTA-8" value="" style="verticalLabelPosition=bottom;verticalAlign=top;strokeWidth=1;shape=mxgraph.mockup.graphics.iconGrid;strokeColor=#CCCCCC;gridSize=1,1;" vertex="1" parent="hX0IhELRTQma99z2lVTA-1">
          <mxGeometry x="20" y="15" width="40" height="40" as="geometry" />
        </mxCell>
        <mxCell id="hX0IhELRTQma99z2lVTA-9" value="Blog &#xa;Logo" style="text;spacingTop=-5;align=center" vertex="1" parent="hX0IhELRTQma99z2lVTA-1">
          <mxGeometry x="20" y="20" width="40" height="40" as="geometry" />
        </mxCell>
        <mxCell id="hX0IhELRTQma99z2lVTA-10" value="Stories" style="text;spacingTop=-5;" vertex="1" parent="hX0IhELRTQma99z2lVTA-1">
          <mxGeometry x="320" y="70.00000000000026" width="30" height="20" as="geometry" />
        </mxCell>
        <mxCell id="hX0IhELRTQma99z2lVTA-11" value="Our places" style="text;spacingTop=-5;" vertex="1" parent="hX0IhELRTQma99z2lVTA-1">
          <mxGeometry x="410" y="70.00000000000003" width="30" height="20" as="geometry" />
        </mxCell>
        <mxCell id="hX0IhELRTQma99z2lVTA-12" value="Our events" style="text;spacingTop=-5;" vertex="1" parent="hX0IhELRTQma99z2lVTA-1">
          <mxGeometry x="530" y="70.00000000000013" width="30" height="20" as="geometry" />
        </mxCell>
        <mxCell id="hX0IhELRTQma99z2lVTA-13" value="" style="rounded=0;whiteSpace=wrap;html=1;" vertex="1" parent="hX0IhELRTQma99z2lVTA-1">
          <mxGeometry x="30" y="710" width="770" height="30" as="geometry" />
        </mxCell>
        <mxCell id="hX0IhELRTQma99z2lVTA-14" value="Contacts" style="text;spacingTop=-5;" vertex="1" parent="hX0IhELRTQma99z2lVTA-1">
          <mxGeometry x="170" y="715.0000000000001" width="30" height="20" as="geometry" />
        </mxCell>
        <mxCell id="hX0IhELRTQma99z2lVTA-15" value="Team" style="text;spacingTop=-5;" vertex="1" parent="hX0IhELRTQma99z2lVTA-1">
          <mxGeometry x="250" y="715.0000000000001" width="30" height="20" as="geometry" />
        </mxCell>
        <mxCell id="7nwVSYtVkBVE6kM7hQm5-1" value="" style="rounded=0;whiteSpace=wrap;html=1;" vertex="1" parent="hX0IhELRTQma99z2lVTA-1">
          <mxGeometry x="320" y="260" width="420" height="260" as="geometry" />
        </mxCell>
        <mxCell id="7nwVSYtVkBVE6kM7hQm5-3" value="&lt;h1&gt;Heading&lt;/h1&gt;&lt;p&gt;Lorem ipsum dolor sit amet, consectetur adipisicing elit, sed do eiusmod tempor incididunt ut labore et dolore magna aliqua.&lt;/p&gt;" style="text;html=1;strokeColor=none;fillColor=none;spacing=5;spacingTop=-20;whiteSpace=wrap;overflow=hidden;rounded=0;" vertex="1" parent="hX0IhELRTQma99z2lVTA-1">
          <mxGeometry x="80" y="310" width="190" height="120" as="geometry" />
        </mxCell>
        <mxCell id="7nwVSYtVkBVE6kM7hQm5-4" value="Map" style="text;html=1;strokeColor=none;fillColor=none;align=center;verticalAlign=middle;whiteSpace=wrap;rounded=0;" vertex="1" parent="hX0IhELRTQma99z2lVTA-1">
          <mxGeometry x="380" y="410" width="60" height="30" as="geometry" />
        </mxCell>
      </root>
    </mxGraphModel>
  </diagram>
  <diagram name="Copy of Copy of Copy of Page-1" id="y025VVRnfH8AGZk9dFNL">
    <mxGraphModel dx="1350" dy="832" grid="1" gridSize="10" guides="1" tooltips="1" connect="1" arrows="1" fold="1" page="1" pageScale="1" pageWidth="826" pageHeight="1169" background="#ffffff" math="0" shadow="0">
      <root>
        <mxCell id="QgDd-2Kw925xI7hIycwZ-0" />
        <mxCell id="QgDd-2Kw925xI7hIycwZ-1" parent="QgDd-2Kw925xI7hIycwZ-0" />
        <mxCell id="QgDd-2Kw925xI7hIycwZ-2" value="Magic project" style="text;spacingTop=-5;fontSize=18;fontStyle=0" vertex="1" parent="QgDd-2Kw925xI7hIycwZ-1">
          <mxGeometry x="70" y="30" width="230" height="20" as="geometry" />
        </mxCell>
        <mxCell id="QgDd-2Kw925xI7hIycwZ-3" value="" style="line;strokeWidth=1" vertex="1" parent="QgDd-2Kw925xI7hIycwZ-1">
          <mxGeometry x="20" y="60" width="780" height="10" as="geometry" />
        </mxCell>
        <mxCell id="QgDd-2Kw925xI7hIycwZ-4" value="" style="line;strokeWidth=1" vertex="1" parent="QgDd-2Kw925xI7hIycwZ-1">
          <mxGeometry x="20" y="90" width="780" height="10" as="geometry" />
        </mxCell>
        <mxCell id="QgDd-2Kw925xI7hIycwZ-5" value="Home" style="text;spacingTop=-5;" vertex="1" parent="QgDd-2Kw925xI7hIycwZ-1">
          <mxGeometry x="140" y="70.00000000000009" width="30" height="20" as="geometry" />
        </mxCell>
        <mxCell id="QgDd-2Kw925xI7hIycwZ-6" value="Shop" style="text;spacingTop=-5;" vertex="1" parent="QgDd-2Kw925xI7hIycwZ-1">
          <mxGeometry x="229.99999999999994" y="70.00000000000016" width="30" height="20" as="geometry" />
        </mxCell>
        <mxCell id="QgDd-2Kw925xI7hIycwZ-7" value="Link to profile" style="text;spacingTop=-5;" vertex="1" parent="QgDd-2Kw925xI7hIycwZ-1">
          <mxGeometry x="699.9999999999999" y="70" width="30" height="20" as="geometry" />
        </mxCell>
        <mxCell id="QgDd-2Kw925xI7hIycwZ-8" value="" style="verticalLabelPosition=bottom;verticalAlign=top;strokeWidth=1;shape=mxgraph.mockup.graphics.iconGrid;strokeColor=#CCCCCC;gridSize=1,1;" vertex="1" parent="QgDd-2Kw925xI7hIycwZ-1">
          <mxGeometry x="20" y="15" width="40" height="40" as="geometry" />
        </mxCell>
        <mxCell id="QgDd-2Kw925xI7hIycwZ-9" value="Blog &#xa;Logo" style="text;spacingTop=-5;align=center" vertex="1" parent="QgDd-2Kw925xI7hIycwZ-1">
          <mxGeometry x="20" y="20" width="40" height="40" as="geometry" />
        </mxCell>
        <mxCell id="QgDd-2Kw925xI7hIycwZ-10" value="Stories" style="text;spacingTop=-5;" vertex="1" parent="QgDd-2Kw925xI7hIycwZ-1">
          <mxGeometry x="320" y="70.00000000000026" width="30" height="20" as="geometry" />
        </mxCell>
        <mxCell id="QgDd-2Kw925xI7hIycwZ-11" value="Our places" style="text;spacingTop=-5;" vertex="1" parent="QgDd-2Kw925xI7hIycwZ-1">
          <mxGeometry x="410" y="70.00000000000003" width="30" height="20" as="geometry" />
        </mxCell>
        <mxCell id="QgDd-2Kw925xI7hIycwZ-12" value="Our events" style="text;spacingTop=-5;" vertex="1" parent="QgDd-2Kw925xI7hIycwZ-1">
          <mxGeometry x="530" y="70.00000000000013" width="30" height="20" as="geometry" />
        </mxCell>
        <mxCell id="QgDd-2Kw925xI7hIycwZ-13" value="" style="rounded=0;whiteSpace=wrap;html=1;" vertex="1" parent="QgDd-2Kw925xI7hIycwZ-1">
          <mxGeometry x="30" y="710" width="770" height="30" as="geometry" />
        </mxCell>
        <mxCell id="QgDd-2Kw925xI7hIycwZ-14" value="Contacts" style="text;spacingTop=-5;" vertex="1" parent="QgDd-2Kw925xI7hIycwZ-1">
          <mxGeometry x="170" y="715.0000000000001" width="30" height="20" as="geometry" />
        </mxCell>
        <mxCell id="QgDd-2Kw925xI7hIycwZ-15" value="Team" style="text;spacingTop=-5;" vertex="1" parent="QgDd-2Kw925xI7hIycwZ-1">
          <mxGeometry x="250" y="715.0000000000001" width="30" height="20" as="geometry" />
        </mxCell>
        <mxCell id="PPgTHbTwtw-jbhYCGq3X-0" value="" style="rounded=0;whiteSpace=wrap;html=1;" vertex="1" parent="QgDd-2Kw925xI7hIycwZ-1">
          <mxGeometry x="50" y="210" width="190" height="330" as="geometry" />
        </mxCell>
        <mxCell id="PPgTHbTwtw-jbhYCGq3X-1" value="" style="rounded=0;whiteSpace=wrap;html=1;" vertex="1" parent="QgDd-2Kw925xI7hIycwZ-1">
          <mxGeometry x="590" y="210" width="190" height="330" as="geometry" />
        </mxCell>
        <mxCell id="PPgTHbTwtw-jbhYCGq3X-2" value="" style="rounded=0;whiteSpace=wrap;html=1;" vertex="1" parent="QgDd-2Kw925xI7hIycwZ-1">
          <mxGeometry x="330" y="210" width="190" height="330" as="geometry" />
        </mxCell>
        <mxCell id="PPgTHbTwtw-jbhYCGq3X-3" value="&lt;h1&gt;Heading&lt;/h1&gt;&lt;p&gt;Lorem ipsum dolor sit amet, consectetur adipisicing elit, sed do eiusmod tempor incididunt ut labore et dolore magna aliqua.&lt;/p&gt;" style="text;html=1;strokeColor=none;fillColor=none;spacing=5;spacingTop=-20;whiteSpace=wrap;overflow=hidden;rounded=0;" vertex="1" parent="QgDd-2Kw925xI7hIycwZ-1">
          <mxGeometry x="75" y="410" width="140" height="110" as="geometry" />
        </mxCell>
        <mxCell id="PPgTHbTwtw-jbhYCGq3X-4" value="&lt;h1&gt;Heading&lt;/h1&gt;&lt;p&gt;Lorem ipsum dolor sit amet, consectetur adipisicing elit, sed do eiusmod tempor incididunt ut labore et dolore magna aliqua.&lt;/p&gt;" style="text;html=1;strokeColor=none;fillColor=none;spacing=5;spacingTop=-20;whiteSpace=wrap;overflow=hidden;rounded=0;" vertex="1" parent="QgDd-2Kw925xI7hIycwZ-1">
          <mxGeometry x="615" y="410" width="140" height="110" as="geometry" />
        </mxCell>
        <mxCell id="PPgTHbTwtw-jbhYCGq3X-5" value="&lt;h1&gt;Heading&lt;/h1&gt;&lt;p&gt;Lorem ipsum dolor sit amet, consectetur adipisicing elit, sed do eiusmod tempor incididunt ut labore et dolore magna aliqua.&lt;/p&gt;" style="text;html=1;strokeColor=none;fillColor=none;spacing=5;spacingTop=-20;whiteSpace=wrap;overflow=hidden;rounded=0;" vertex="1" parent="QgDd-2Kw925xI7hIycwZ-1">
          <mxGeometry x="355" y="410" width="140" height="110" as="geometry" />
        </mxCell>
        <mxCell id="PPgTHbTwtw-jbhYCGq3X-6" value="" style="rounded=0;whiteSpace=wrap;html=1;" vertex="1" parent="QgDd-2Kw925xI7hIycwZ-1">
          <mxGeometry x="85" y="230" width="120" height="140" as="geometry" />
        </mxCell>
        <mxCell id="PPgTHbTwtw-jbhYCGq3X-7" value="" style="rounded=0;whiteSpace=wrap;html=1;" vertex="1" parent="QgDd-2Kw925xI7hIycwZ-1">
          <mxGeometry x="625" y="230" width="120" height="140" as="geometry" />
        </mxCell>
        <mxCell id="PPgTHbTwtw-jbhYCGq3X-8" value="" style="rounded=0;whiteSpace=wrap;html=1;" vertex="1" parent="QgDd-2Kw925xI7hIycwZ-1">
          <mxGeometry x="355" y="230" width="120" height="140" as="geometry" />
        </mxCell>
      </root>
    </mxGraphModel>
  </diagram>
  <diagram name="Copy of Copy of Copy of Copy of Page-1" id="cT5UO2FwgcRGK2-vPXZY">
    <mxGraphModel dx="1350" dy="832" grid="1" gridSize="10" guides="1" tooltips="1" connect="1" arrows="1" fold="1" page="1" pageScale="1" pageWidth="826" pageHeight="1169" background="#ffffff" math="0" shadow="0">
      <root>
        <mxCell id="1cQxptp0EFt_g023tkaM-0" />
        <mxCell id="1cQxptp0EFt_g023tkaM-1" parent="1cQxptp0EFt_g023tkaM-0" />
        <mxCell id="1cQxptp0EFt_g023tkaM-2" value="Magic project" style="text;spacingTop=-5;fontSize=18;fontStyle=0" vertex="1" parent="1cQxptp0EFt_g023tkaM-1">
          <mxGeometry x="70" y="30" width="230" height="20" as="geometry" />
        </mxCell>
        <mxCell id="1cQxptp0EFt_g023tkaM-3" value="" style="line;strokeWidth=1" vertex="1" parent="1cQxptp0EFt_g023tkaM-1">
          <mxGeometry x="20" y="60" width="780" height="10" as="geometry" />
        </mxCell>
        <mxCell id="1cQxptp0EFt_g023tkaM-4" value="" style="line;strokeWidth=1" vertex="1" parent="1cQxptp0EFt_g023tkaM-1">
          <mxGeometry x="20" y="90" width="780" height="10" as="geometry" />
        </mxCell>
        <mxCell id="1cQxptp0EFt_g023tkaM-5" value="Home" style="text;spacingTop=-5;" vertex="1" parent="1cQxptp0EFt_g023tkaM-1">
          <mxGeometry x="140" y="70.00000000000009" width="30" height="20" as="geometry" />
        </mxCell>
        <mxCell id="1cQxptp0EFt_g023tkaM-6" value="Shop" style="text;spacingTop=-5;" vertex="1" parent="1cQxptp0EFt_g023tkaM-1">
          <mxGeometry x="229.99999999999994" y="70.00000000000016" width="30" height="20" as="geometry" />
        </mxCell>
        <mxCell id="1cQxptp0EFt_g023tkaM-7" value="Link to profile" style="text;spacingTop=-5;" vertex="1" parent="1cQxptp0EFt_g023tkaM-1">
          <mxGeometry x="699.9999999999999" y="70" width="30" height="20" as="geometry" />
        </mxCell>
        <mxCell id="1cQxptp0EFt_g023tkaM-8" value="" style="verticalLabelPosition=bottom;verticalAlign=top;strokeWidth=1;shape=mxgraph.mockup.graphics.iconGrid;strokeColor=#CCCCCC;gridSize=1,1;" vertex="1" parent="1cQxptp0EFt_g023tkaM-1">
          <mxGeometry x="20" y="15" width="40" height="40" as="geometry" />
        </mxCell>
        <mxCell id="1cQxptp0EFt_g023tkaM-9" value="Blog &#xa;Logo" style="text;spacingTop=-5;align=center" vertex="1" parent="1cQxptp0EFt_g023tkaM-1">
          <mxGeometry x="20" y="20" width="40" height="40" as="geometry" />
        </mxCell>
        <mxCell id="1cQxptp0EFt_g023tkaM-10" value="Stories" style="text;spacingTop=-5;" vertex="1" parent="1cQxptp0EFt_g023tkaM-1">
          <mxGeometry x="320" y="70.00000000000026" width="30" height="20" as="geometry" />
        </mxCell>
        <mxCell id="1cQxptp0EFt_g023tkaM-11" value="Our places" style="text;spacingTop=-5;" vertex="1" parent="1cQxptp0EFt_g023tkaM-1">
          <mxGeometry x="410" y="70.00000000000003" width="30" height="20" as="geometry" />
        </mxCell>
        <mxCell id="1cQxptp0EFt_g023tkaM-12" value="Our events" style="text;spacingTop=-5;" vertex="1" parent="1cQxptp0EFt_g023tkaM-1">
          <mxGeometry x="530" y="70.00000000000013" width="30" height="20" as="geometry" />
        </mxCell>
        <mxCell id="1cQxptp0EFt_g023tkaM-13" value="" style="rounded=0;whiteSpace=wrap;html=1;" vertex="1" parent="1cQxptp0EFt_g023tkaM-1">
          <mxGeometry x="30" y="710" width="770" height="30" as="geometry" />
        </mxCell>
        <mxCell id="1cQxptp0EFt_g023tkaM-14" value="Contacts" style="text;spacingTop=-5;" vertex="1" parent="1cQxptp0EFt_g023tkaM-1">
          <mxGeometry x="170" y="715.0000000000001" width="30" height="20" as="geometry" />
        </mxCell>
        <mxCell id="1cQxptp0EFt_g023tkaM-15" value="Team" style="text;spacingTop=-5;" vertex="1" parent="1cQxptp0EFt_g023tkaM-1">
          <mxGeometry x="250" y="715.0000000000001" width="30" height="20" as="geometry" />
        </mxCell>
        <mxCell id="1cQxptp0EFt_g023tkaM-17" value="" style="rounded=0;whiteSpace=wrap;html=1;" vertex="1" parent="1cQxptp0EFt_g023tkaM-1">
          <mxGeometry x="110" y="210" width="630" height="330" as="geometry" />
        </mxCell>
        <mxCell id="1cQxptp0EFt_g023tkaM-20" value="&lt;h1&gt;Heading&lt;/h1&gt;&lt;p&gt;Lorem ipsum dolor sit amet, consectetur adipisicing elit, sed do eiusmod tempor incididunt ut labore et dolore magna aliqua.&lt;/p&gt;" style="text;html=1;strokeColor=none;fillColor=none;spacing=5;spacingTop=-20;whiteSpace=wrap;overflow=hidden;rounded=0;" vertex="1" parent="1cQxptp0EFt_g023tkaM-1">
          <mxGeometry x="330" y="250" width="255" height="80" as="geometry" />
        </mxCell>
        <mxCell id="1cQxptp0EFt_g023tkaM-23" value="" style="rounded=0;whiteSpace=wrap;html=1;" vertex="1" parent="1cQxptp0EFt_g023tkaM-1">
          <mxGeometry x="150" y="230" width="120" height="140" as="geometry" />
        </mxCell>
        <mxCell id="kkw2714DI9CV1PIP4CZu-0" value="" style="rounded=0;whiteSpace=wrap;html=1;" vertex="1" parent="1cQxptp0EFt_g023tkaM-1">
          <mxGeometry x="500" y="370" width="140" height="40" as="geometry" />
        </mxCell>
        <mxCell id="kkw2714DI9CV1PIP4CZu-1" value="Sell something" style="text;html=1;strokeColor=none;fillColor=none;align=center;verticalAlign=middle;whiteSpace=wrap;rounded=0;" vertex="1" parent="1cQxptp0EFt_g023tkaM-1">
          <mxGeometry x="525" y="370" width="85" height="30" as="geometry" />
        </mxCell>
      </root>
    </mxGraphModel>
  </diagram>
</mxfile>
